<svg width="32" height="32" viewBox="0 0 32 32" fill="none" xmlns="http://www.w3.org/2000/svg">
<path d="M29.3334 22.32V6.22671C29.3334 4.62671 28.0267 3.44005 26.4401 3.57338H26.3601C23.5601 3.81338 19.3067 5.24005 16.9334 6.73338L16.7067 6.88005C16.3201 7.12005 15.6801 7.12005 15.2934 6.88005L14.9601 6.68005C12.5867 5.20005 8.34675 3.78672 5.54675 3.56005C3.96008 3.42672 2.66675 4.62671 2.66675 6.21338V22.32C2.66675 23.6 3.70675 24.8 4.98675 24.96L5.37342 25.0134C8.26675 25.4 12.7334 26.8667 15.2934 28.2667L15.3467 28.2934C15.7067 28.4934 16.2801 28.4934 16.6267 28.2934C19.1867 26.88 23.6667 25.4 26.5734 25.0134L27.0134 24.96C28.2934 24.8 29.3334 23.6 29.3334 22.32Z" stroke="#171717" stroke-width="2.5" stroke-linecap="round" stroke-linejoin="round"/>
<path d="M16 7.31995V27.3199" stroke="#171717" stroke-width="2.5" stroke-linecap="round" stroke-linejoin="round"/>
<path d="M10.3333 11.3199H7.33325" stroke="#171717" stroke-width="2.5" stroke-linecap="round" stroke-linejoin="round"/>
<path d="M11.3333 15.3199H7.33325" stroke="#171717" stroke-width="2.5" stroke-linecap="round" stroke-linejoin="round"/>
</svg>
