<svg width="22" height="22" viewBox="0 0 22 22" fill="none" xmlns="http://www.w3.org/2000/svg">
<path d="M1.83325 1.83337H3.42826C4.41826 1.83337 5.19742 2.68587 5.11492 3.66671L4.35409 12.7967C4.22575 14.2909 5.40825 15.5742 6.91158 15.5742H16.6741C17.9941 15.5742 19.1491 14.4925 19.2499 13.1817L19.7449 6.30671C19.8549 4.78505 18.6999 3.54754 17.1691 3.54754H5.33493" stroke="#F21055" stroke-width="1.5" stroke-miterlimit="10" stroke-linecap="round" stroke-linejoin="round"/>
<path d="M14.8958 20.1667C15.5287 20.1667 16.0417 19.6537 16.0417 19.0208C16.0417 18.388 15.5287 17.875 14.8958 17.875C14.263 17.875 13.75 18.388 13.75 19.0208C13.75 19.6537 14.263 20.1667 14.8958 20.1667Z" stroke="#F21055" stroke-width="1.5" stroke-miterlimit="10" stroke-linecap="round" stroke-linejoin="round"/>
<path d="M7.56258 20.1667C8.19541 20.1667 8.70841 19.6537 8.70841 19.0208C8.70841 18.388 8.19541 17.875 7.56258 17.875C6.92976 17.875 6.41675 18.388 6.41675 19.0208C6.41675 19.6537 6.92976 20.1667 7.56258 20.1667Z" stroke="#F21055" stroke-width="1.5" stroke-miterlimit="10" stroke-linecap="round" stroke-linejoin="round"/>
<path d="M8.25 7.33337H19.25" stroke="#F21055" stroke-width="1.5" stroke-miterlimit="10" stroke-linecap="round" stroke-linejoin="round"/>
</svg>
